<svg xmlns="http://www.w3.org/2000/svg" viewBox="0 0 1400 1000" role="img" aria-labelledby="title desc"><title id="title">Mariages sous les orangers</title><desc id="desc">Elegant wedding setup under orange trees.</desc><defs><linearGradient id="g" x1="0" y1="0" x2="1" y2="1"><stop stop-color="#fff8ee"/><stop offset="0.5" stop-color="#e1b98b"/><stop offset="1" stop-color="#3d2518"/></linearGradient><filter id="n"><feTurbulence baseFrequency="0.74" numOctaves="3"/><feComponentTransfer><feFuncA type="table" tableValues="0 0.1"/></feComponentTransfer></filter></defs><rect width="1400" height="1000" fill="url(#g)"/><path d="M360 710c70-200 600-200 680 0" fill="none" stroke="#fff8ee" stroke-width="32" stroke-linecap="round" opacity="0.78"/><path d="M420 710c55-140 500-140 560 0" fill="none" stroke="#d8763e" stroke-width="14" stroke-linecap="round" opacity="0.6"/><rect x="330" y="720" width="740" height="95" rx="48" fill="#fff8ee" opacity="0.45"/><g fill="#3d2518" opacity="0.68"><rect x="410" y="805" width="32" height="110" rx="16"/><rect x="958" y="805" width="32" height="110" rx="16"/></g><g fill="#d8763e"><circle cx="315" cy="430" r="20"/><circle cx="1090" cy="430" r="18"/><circle cx="1010" cy="375" r="12"/></g><path d="M0 860c320-110 560-45 790-120 270-90 440-10 610-100v360H0Z" fill="#20140e" opacity="0.4"/><rect width="1400" height="1000" filter="url(#n)"/></svg>
